<svg xmlns="http://www.w3.org/2000/svg" xmlns:xlink="http://www.w3.org/1999/xlink" id="Capa_1" x="0px" y="0px" viewBox="0 0 500 500" style="enable-background:new 0 0 500 500;" xml:space="preserve"><style type="text/css">	.st0{fill:#1D1D1B;}</style><g>	<path class="st0" d="M394.2,296.19c6.46,8.95,6.4,21.04-0.07,29.98c-32.27,44.67-84.78,73.77-144.11,73.77  c-59.33,0-111.89-29.1-144.16-73.76c-6.47-8.95-6.53-21.04-0.06-30c13.58-18.79,30.74-34.82,50.48-47.12  c18.63-11.6,39.63-19.88,62.06-23.9c4.72-0.85,9.09,2.72,9.09,7.51v21.88c-17.04,8.77-28.37,27.23-26.64,48.12  c1.92,23.19,20.53,42.33,43.66,44.86c29.77,3.26,54.94-19.95,54.94-49.05c0-18.59-10.26-34.79-25.44-43.22V232.9  c0-4.82,4.41-8.39,9.14-7.5c21.9,4.12,42.39,12.29,60.69,23.67C363.51,261.36,380.63,277.4,394.2,296.19z"></path>	<path class="st0" d="M289.51,118.46c0.1,5.29-0.46,13.13-4.12,21.41c-1.31,2.96-2.78,5.06-3.78,6.55  c-6.25,9.35-11.41,11.54-15.39,16.19c-5.11,5.97-5.37,19.91-5.68,47.56c-0.06,5.66-0.04,10.36,0,13.61v80.49l-9.85,10.16  l-9.85-10.16v-80.49c0,0,0-0.1,0-0.25c0-2.28-0.3-18.08-8.73-26.51c-9.09-9.09-13.51-22.34,0-35.85  c8.33-8.33,9.29-8.89,10.21-12.59c3-11.63-21.94-17.16-27.68-38.39c-3.25-12.04,3.2-16.15,1.63-41.59  c-0.51-8.07-1.57-14.63-2.39-18.79c11.24-0.67,19.91,0.71,26.87,2.87c0,0,10.89,3.27,19.85,9.42  C284.73,78.65,289.03,114.09,289.51,118.46z"></path></g></svg>