{
  "asset": {
    "version": "2.0",
    "generator": "coherence-network-nest-generator"
  },
  "scene": 0,
  "scenes": [
    {
      "nodes": [
        0
      ]
    }
  ],
  "nodes": [
    {
      "mesh": 0,
      "name": "CommunityNest"
    }
  ],
  "meshes": [
    {
      "primitives": [
        {
          "attributes": {
            "POSITION": 0,
            "NORMAL": 1
          },
          "indices": 2,
          "material": 0
        }
      ]
    }
  ],
  "materials": [
    {
      "name": "NestMaterial",
      "pbrMetallicRoughness": {
        "baseColorFactor": [
          0.55,
          0.35,
          0.15,
          1
        ],
        "metallicFactor": 0,
        "roughnessFactor": 0.9
      }
    }
  ],
  "accessors": [
    {
      "bufferView": 0,
      "byteOffset": 0,
      "componentType": 5126,
      "count": 351,
      "type": "VEC3",
      "min": [
        -6.016430854797363,
        0,
        -5.75
      ],
      "max": [
        5.5,
        4,
        5.624495506286621
      ]
    },
    {
      "bufferView": 0,
      "byteOffset": 12,
      "componentType": 5126,
      "count": 351,
      "type": "VEC3"
    },
    {
      "bufferView": 1,
      "componentType": 5123,
      "count": 1800,
      "type": "SCALAR"
    }
  ],
  "bufferViews": [
    {
      "buffer": 0,
      "byteOffset": 0,
      "byteLength": 8424,
      "byteStride": 24
    },
    {
      "buffer": 1,
      "byteOffset": 0,
      "byteLength": 3600
    }
  ],
  "buffers": [
    {
      "uri": "data:application/octet-stream;base64,",
      "byteLength": 8424
    },
    {
      "uri": "data:application/octet-stream;base64,",
      "byteLength": 3600
    }
  ]
}